<svg xmlns="http://www.w3.org/2000/svg" viewBox="0 0 24 24" fill="#E1306C">
  <path d="M12 2.163c3.204 0 3.584.012 4.85.07 1.17.054 1.96.24 2.418.403a4.918 4.918 0 011.675 1.092 4.918 4.918 0 011.092 1.675c.163.458.349 1.248.403 2.418.058 1.266.07 1.645.07 4.85s-.012 3.584-.07 4.85c-.054 1.17-.24 1.96-.403 2.418a4.918 4.918 0 01-1.092 1.675 4.918 4.918 0 01-1.675 1.092c-.458.163-1.248.349-2.418.403-1.266.058-1.645.07-4.85.07s-3.584-.012-4.85-.07c-1.17-.054-1.96-.24-2.418-.403a4.918 4.918 0 01-1.675-1.092 4.918 4.918 0 01-1.092-1.675c-.163-.458-.349-1.248-.403-2.418C2.175 15.584 2.163 15.204 2.163 12s.012-3.584.07-4.85c.054-1.17.24-1.96.403-2.418a4.918 4.918 0 011.092-1.675 4.918 4.918 0 011.675-1.092c.458-.163 1.248-.349 2.418-.403C8.416 2.175 8.796 2.163 12 2.163zm0-2.163C8.735 0 8.332.012 7.052.07 5.78.127 4.842.28 4.042.512a6.92 6.92 0 00-2.5 1.06 6.92 6.92 0 00-1.06 2.5C.28 5.158.127 6.096.07 7.368.012 8.648 0 9.051 0 12c0 2.949.012 3.352.07 4.632.057 1.272.21 2.21.442 3.01a6.92 6.92 0 001.06 2.5 6.92 6.92 0 002.5 1.06c.8.232 1.738.385 3.01.442 1.28.058 1.683.07 4.632.07s3.352-.012 4.632-.07c1.272-.057 2.21-.21 3.01-.442a6.92 6.92 0 002.5-1.06 6.92 6.92 0 001.06-2.5c.232-.8.385-1.738.442-3.01.058-1.28.07-1.683.07-4.632s-.012-3.352-.07-4.632c-.057-1.272-.21-2.21-.442-3.01a6.92 6.92 0 00-1.06-2.5 6.92 6.92 0 00-2.5-1.06c-.8-.232-1.738-.385-3.01-.442C15.352.012 14.949 0 12 0z"></path>
  <path d="M12 5.838a6.162 6.162 0 100 12.324 6.162 6.162 0 000-12.324zm0 10.162a3.999 3.999 0 110-7.998 3.999 3.999 0 010 7.998z"></path>
  <circle cx="18.406" cy="5.594" r="1.44"></circle>
</svg>
